<svg xmlns="http://www.w3.org/2000/svg" viewBox="90 84 160 82"><path class="box" fill="none" d="M170 162H93.7V88h152.6v74H170"/><path class="text" d="M132.3 105.8a15.1 15.1 0 0 0-13.4-7.8c-8.4 0-15.2 6.4-15.2 15.3s6.8 15.3 15.2 15.3c6.2 0 11.4-3.5 13.9-8.7l-7.2-1.8a8 8 0 0 1-6.7 3.4c-4.6 0-7.9-3.2-7.9-8.2 0-4.9 3-8.4 8-8.4 2.2 0 4.7 1 6 2.8zm28.4 22.2l-6.5-10.9a8.8 8.8 0 0 0 5.3-8.5c0-6-4.4-10-11.8-10h-11V128h7v-9.6h3.7l5.4 9.6zm-17-22.8h5c2.5 0 3.5 1.8 3.5 3.4 0 1.6-1 3.5-3.6 3.5h-4.8zm40.9 22.8h7.6l-11.8-29.4h-6.6L162 128h7.6l1.7-4.7h11.6zm-11-10.8l2-5.7c.7-1.7 1.4-4.4 1.5-4.4 0 0 .8 2.7 1.5 4.4l2 5.7zm28 10.8V98.6h-7V128zm27.8-2.4v2.4h6v-16.7h-13.8v5.7h7.8c-.9 2.2-3 4.7-7.6 4.7-4.9 0-8.3-3.3-8.3-8.4 0-4.9 3-8.4 7.8-8.4 2.4 0 4.8 1 6.2 2.8l7.2-2a15.1 15.1 0 0 0-13.4-7.7c-8.4 0-15.2 6.4-15.2 15.3s6.8 15.3 15.2 15.3c3 0 6.3-1.2 8-3zm-125.7 6.3v19.7h8.5c4.8 0 7-2.6 7-6 0-2-1.6-4-3.5-4.6 1.2-.4 2.5-2 2.5-3.8 0-3-2.5-5.3-6-5.3zm4.7 7.7V136h2.8c1.3 0 2.2.8 2.2 1.9 0 1-1 1.8-2.2 1.8zm0 8v-4.4h3.3c1.5 0 2.5.9 2.5 2.2 0 1.3-1 2.3-2.5 2.3zm26.1-15.7v10.9c0 3.4-1.4 4.8-4 4.8-2.5 0-4-1.4-4-4.8v-10.9H122v11c0 5.9 3.4 9.1 8.7 9.1 5.2 0 8.6-3.2 8.6-9.1v-11zm26.7 4.9a10 10 0 0 0-9-5.2 10 10 0 0 0-10.1 10.2 10 10 0 0 0 10.2 10.2 10 10 0 0 0 9.2-5.8l-4.7-1.2a5.3 5.3 0 0 1-4.5 2.3c-3.1 0-5.3-2.1-5.3-5.5 0-3.2 2-5.6 5.3-5.6 1.5 0 3.2.7 4.1 1.9zm20.9 14.8l-8.4-11.3 8.4-8.4h-5.8l-4.8 4.8-2.6 2.7v-7.5h-4.7v19.7h4.7v-6.5l1.7-1.6 6 8.1zm7.4-4.4V132h-4.7v19.7h14v-4.4zm16.8 0v-3.5h7.5v-4.1h-7.5v-3.2h9.6v-4.5h-14.3v19.7H216v-4.4zm30 4.4l-4.3-7.2c2.3-1 3.5-3 3.5-5.7 0-4-3-6.8-8-6.8h-7.3v19.7h4.8v-6.4h2.4l3.6 6.4zM225 136.4h3.2c1.7 0 2.4 1.2 2.4 2.3s-.7 2.3-2.4 2.3H225z"/></svg>
