<svg xmlns="http://www.w3.org/2000/svg" viewBox="0 0 817 940"><path d="M592 938a196 196 0 0 1-164-225c7-41 26-77 55-106a191 191 0 0 1 174-55c41 8 74 26 102 55a192 192 0 0 1-51 313 183 183 0 0 1-116 18zm59-47a150 150 0 0 0 111-192 149 149 0 0 0-187-95 148 148 0 0 0 76 287zm-56-76l-1-21v-21l-22-1h-21v-54h21l22-1v-43h54v22l1 21 21 1h22v54h-22l-21 1-1 21v22h-26l-27-1zM0 409V0h470v241h211v294l-6-2a216 216 0 0 0-259 284c0 2-10 2-208 2H0V409zM515 99c0-53 0-97 1-96l163 192c1 1-18 1-81 1h-83V99z"/></svg>
