<svg xmlns="http://www.w3.org/2000/svg" viewBox="0 0 847 847"><path d="M398 103h51v86a211 211 0 0 0-51 0v-86zM449 658v86h-51v-86l25 1 26-1zM744 397v52h-86l1-26-1-26h86zM189 449h-86v-52h86l-2 26 2 26zM714 561l-26 45-74-43c10-14 18-29 25-45l75 43zM207 328l-74-43 26-44 74 43c-10 14-19 29-26 44zM606 688l-45 26-43-75c16-7 31-15 45-25l43 74zM284 233l-43-74 45-26 42 74c-15 7-30 16-44 26zM241 688l45 26 42-75c-15-7-30-15-44-25l-43 74zM563 233l43-74-45-26-43 74c16 7 31 16 45 26zM133 561l26 45 74-43c-10-14-19-29-26-45l-74 43zM639 328l75-43-26-44-74 43c10 14 18 28 25 44z"/><circle cx="423" cy="423" r="205"/></svg>
